<?xml version="1.0" encoding="UTF-8" standalone="no"?>
<!-- Created with Inkscape (http://www.inkscape.org/) -->

<svg
   xmlns:dc="http://purl.org/dc/elements/1.1/"
   xmlns:cc="http://creativecommons.org/ns#"
   xmlns:rdf="http://www.w3.org/1999/02/22-rdf-syntax-ns#"
   xmlns:svg="http://www.w3.org/2000/svg"
   xmlns="http://www.w3.org/2000/svg"
   xmlns:sodipodi="http://sodipodi.sourceforge.net/DTD/sodipodi-0.dtd"
   xmlns:inkscape="http://www.inkscape.org/namespaces/inkscape"
   width="256"
   height="256"
   viewBox="0 0 67.733332 67.733335"
   version="1.1"
   id="svg824"
   inkscape:version="0.92.3 (2405546, 2018-03-11)"
   sodipodi:docname="category_innovation.svg">
  <defs
     id="defs818" />
  <sodipodi:namedview
     id="base"
     pagecolor="#ffffff"
     bordercolor="#666666"
     borderopacity="1.0"
     inkscape:pageopacity="0.0"
     inkscape:pageshadow="2"
     inkscape:zoom="4.1321553"
     inkscape:cx="21.397037"
     inkscape:cy="128"
     inkscape:document-units="mm"
     inkscape:current-layer="layer1"
     showgrid="false"
     units="px"
     inkscape:window-width="3120"
     inkscape:window-height="1752"
     inkscape:window-x="80"
     inkscape:window-y="0"
     inkscape:window-maximized="1" />
  <metadata
     id="metadata821">
    <rdf:RDF>
      <cc:Work
         rdf:about="">
        <dc:format>image/svg+xml</dc:format>
        <dc:type
           rdf:resource="http://purl.org/dc/dcmitype/StillImage" />
        <dc:title></dc:title>
      </cc:Work>
    </rdf:RDF>
  </metadata>
  <g
     inkscape:label="Layer 1"
     inkscape:groupmode="layer"
     id="layer1"
     transform="translate(0,-229.26665)">
    <path
       style="fill:#fbfbfb;fill-opacity:1;fill-rule:evenodd;stroke-width:0.08690244"
       d="m 25.047171,236.67498 v 4.40971 h 4.409872 4.409709 4.409709 4.409709 v -4.40971 h -4.409709 -4.409709 -4.409709 z m 17.638999,4.40971 v 4.40972 h 4.409702 v -4.40972 z m 4.409702,4.40972 v 4.4097 4.40987 4.40971 4.40971 h 4.409709 v -4.40971 -4.40971 -4.40987 -4.4097 z m 0,17.63899 H 42.68617 v 4.40971 4.4097 h 4.409702 v -4.4097 z m -4.409702,8.81941 h -4.409709 v 4.40972 h -4.409709 -4.409709 v -4.40972 h -4.409872 v 4.40972 4.40971 4.4097 h 4.409872 v 4.40971 h 4.409709 4.409709 v -4.40971 h 4.409709 v -4.4097 -4.40971 z m -17.638999,0 v -4.4097 -4.40971 h -4.409708 v 4.40971 4.4097 z m -4.409708,-8.81941 v -4.40971 -4.40971 -4.40987 -4.4097 h -4.40971 v 4.4097 4.40987 4.40971 4.40971 z m 0,-17.63899 h 4.409708 v -4.40972 h -4.409708 z m 8.81958,26.4584 h 4.409709 v -4.4097 -4.40971 h 4.409709 v -4.40971 h -4.409709 -4.409709 v 4.40971 4.40971 z"
       id="rect1771"
       inkscape:connector-curvature="0" />
  </g>
</svg>
