<?xml version="1.0" encoding="UTF-8" standalone="no"?>
<!-- Created with Inkscape (http://www.inkscape.org/) -->

<svg
   xmlns:dc="http://purl.org/dc/elements/1.1/"
   xmlns:cc="http://creativecommons.org/ns#"
   xmlns:rdf="http://www.w3.org/1999/02/22-rdf-syntax-ns#"
   xmlns:svg="http://www.w3.org/2000/svg"
   xmlns="http://www.w3.org/2000/svg"
   xmlns:sodipodi="http://sodipodi.sourceforge.net/DTD/sodipodi-0.dtd"
   xmlns:inkscape="http://www.inkscape.org/namespaces/inkscape"
   width="256"
   height="256"
   viewBox="0 0 67.733332 67.733335"
   version="1.1"
   id="svg824"
   sodipodi:docname="category_entertainment.svg"
   inkscape:version="0.92.3 (2405546, 2018-03-11)">
  <defs
     id="defs818" />
  <sodipodi:namedview
     id="base"
     pagecolor="#ffffff"
     bordercolor="#666666"
     borderopacity="1.0"
     inkscape:pageopacity="0.0"
     inkscape:pageshadow="2"
     inkscape:zoom="4.1321553"
     inkscape:cx="-85.205926"
     inkscape:cy="128"
     inkscape:document-units="mm"
     inkscape:current-layer="layer1"
     showgrid="false"
     units="px"
     inkscape:window-width="3120"
     inkscape:window-height="1752"
     inkscape:window-x="80"
     inkscape:window-y="0"
     inkscape:window-maximized="1" />
  <metadata
     id="metadata821">
    <rdf:RDF>
      <cc:Work
         rdf:about="">
        <dc:format>image/svg+xml</dc:format>
        <dc:type
           rdf:resource="http://purl.org/dc/dcmitype/StillImage" />
        <dc:title></dc:title>
      </cc:Work>
    </rdf:RDF>
  </metadata>
  <g
     inkscape:label="Layer 1"
     inkscape:groupmode="layer"
     id="layer1"
     transform="translate(0,-229.26665)">
    <path
       style="fill:#ffffff;fill-opacity:1;fill-rule:evenodd;stroke-width:0.1053125"
       d="m 14.706993,241.23655 v 5.47419 h 5.474194 v -5.47419 z m 5.474194,5.47419 v 5.4742 h -5.474194 v 5.47418 H 9.2327908 v 5.47419 H 3.7586037 v 5.4742 5.47419 5.4742 h 5.4741871 v -5.4742 -5.47419 h 5.4742022 v 5.47419 5.4742 h 5.474194 v -5.4742 h 5.474187 5.474194 5.474197 5.474186 5.474202 v 5.4742 h 5.474194 v -5.4742 -5.47419 h 5.474188 v 5.47419 5.4742 h 5.474195 v -5.4742 -5.47419 -5.4742 h -5.474195 v -5.47419 h -5.474188 v -5.47418 h -5.474194 v -5.4742 h -5.474202 v 5.4742 h -5.474186 -5.474197 -5.474194 v -5.4742 z m 27.370966,0 h 5.474194 v -5.47419 h -5.474194 z m 0,32.84516 h -5.474202 -5.474186 v 5.47419 h 5.474186 5.474202 z m -27.370966,0 v 5.47419 h 5.474187 5.474194 v -5.47419 h -5.474194 z m 0,-21.89678 h 5.474187 v 5.47419 h -5.474187 z m 21.896764,0 h 5.474202 v 5.47419 h -5.474202 z"
       id="rect1893"
       inkscape:connector-curvature="0" />
  </g>
</svg>
