<?xml version="1.0" encoding="UTF-8" standalone="no"?>
<svg
   xmlns:dc="http://purl.org/dc/elements/1.1/"
   xmlns:cc="http://creativecommons.org/ns#"
   xmlns:rdf="http://www.w3.org/1999/02/22-rdf-syntax-ns#"
   xmlns:svg="http://www.w3.org/2000/svg"
   xmlns="http://www.w3.org/2000/svg"
   xmlns:sodipodi="http://sodipodi.sourceforge.net/DTD/sodipodi-0.dtd"
   xmlns:inkscape="http://www.inkscape.org/namespaces/inkscape"
   version="1.1"
   viewBox="0.0 0.0 387.7821522309711 114.67979002624672"
   fill="none"
   stroke="none"
   stroke-linecap="square"
   stroke-miterlimit="10"
   id="svg25"
   sodipodi:docname="thacks_logo.svg"
   inkscape:version="0.92.3 (2405546, 2018-03-11)">
  <metadata
     id="metadata31">
    <rdf:RDF>
      <cc:Work
         rdf:about="">
        <dc:format>image/svg+xml</dc:format>
        <dc:type
           rdf:resource="http://purl.org/dc/dcmitype/StillImage" />
        <dc:title></dc:title>
      </cc:Work>
    </rdf:RDF>
  </metadata>
  <defs
     id="defs29" />
  <sodipodi:namedview
     pagecolor="#ffffff"
     bordercolor="#666666"
     borderopacity="1"
     objecttolerance="10"
     gridtolerance="10"
     guidetolerance="10"
     inkscape:pageopacity="0"
     inkscape:pageshadow="2"
     inkscape:window-width="3120"
     inkscape:window-height="1752"
     id="namedview27"
     showgrid="false"
     inkscape:zoom="2.0422796"
     inkscape:cx="303.57603"
     inkscape:cy="-14.384499"
     inkscape:window-x="80"
     inkscape:window-y="0"
     inkscape:window-maximized="1"
     inkscape:current-layer="svg25" />
  <clipPath
     id="p.0">
    <path
       d="m0 0l387.78217 0l0 114.67979l-387.78217 0l0 -114.67979z"
       clip-rule="nonzero"
       id="path2" />
  </clipPath>
  <g
     id="g929"
     transform="translate(5.3442439,1.4299838)">
    <path
       d="m 39.437498,58.270998 -21.3125,7.796871 21.3125,7.75 v 8 L 8.9687478,70.239744 V 61.911623 L 39.437498,50.333498 Z"
       id="path9"
       style="fill:#ffff00;fill-opacity:1;fill-rule:nonzero;stroke:none"
       inkscape:connector-curvature="0" />
    <path
       id="path859"
       d="m 89.742188,43.677248 v 44.79687 h -10.375 v -18.375 h -20.34375 v 18.375 h -10.375 v -44.79687 h 10.375 v 17.65625 h 20.34375 v -17.65625 z"
       style="fill:#ffffff;fill-rule:nonzero;stroke:none"
       inkscape:connector-curvature="0" />
    <path
       inkscape:connector-curvature="0"
       id="path866"
       d="m 200.30859,42.912107 c -4.60416,0 -8.7552,0.994792 -12.45312,2.984375 -3.6875,1.979167 -6.58855,4.729167 -8.70313,8.25 -2.10416,3.510417 -3.15625,7.484378 -3.15625,11.921875 0,4.4375 1.05209,8.416667 3.15625,11.9375 2.11458,3.520834 5.01563,6.276042 8.70313,8.265625 3.69792,1.979167 7.82812,2.96875 12.39062,2.96875 3.88542,0 7.40625,-0.682291 10.5625,-2.046875 3.15625,-1.364583 5.80208,-3.348958 7.9375,-5.953125 l -6.65625,-6.140625 c -3.03125,3.541667 -6.78645,5.3125 -11.26562,5.3125 -2.77083,0 -5.2448,-0.609375 -7.42188,-1.828125 -2.17708,-1.21875 -3.875,-2.911458 -5.09375,-5.078125 -1.21875,-2.177083 -1.82812,-4.65625 -1.82812,-7.4375 0,-2.77083 0.60937,-5.244791 1.82812,-7.421875 1.21875,-2.177083 2.91667,-3.869791 5.09375,-5.078125 2.17708,-1.21875 4.65105,-1.828125 7.42188,-1.828125 4.47917,0 8.23437,1.75 11.26562,5.25 l 6.65625,-6.140625 c -2.13542,-2.5625 -4.77083,-4.526041 -7.90625,-5.890625 -3.13542,-1.364583 -6.64583,-2.046875 -10.53125,-2.046875 z"
       style="fill:#ffffff;fill-rule:nonzero;stroke:none" />
    <path
       inkscape:connector-curvature="0"
       id="path864"
       d="m 289.33008,42.912107 c -4.09376,0 -7.56251,0.619792 -10.40625,1.859375 -2.83334,1.229167 -4.95312,2.901042 -6.35938,5.015625 -1.40624,2.114584 -2.10937,4.473959 -2.10937,7.078125 0,2.979167 0.77604,5.364586 2.32812,7.15625 1.5625,1.791667 3.43229,3.09375 5.60938,3.90625 2.17708,0.8125 4.97396,1.625 8.39062,2.4375 2.21876,0.510417 3.97396,0.979167 5.26563,1.40625 1.30208,0.427084 2.36979,0.994792 3.20312,1.703125 0.83334,0.697917 1.25,1.578125 1.25,2.640625 0,1.458334 -0.70313,2.625 -2.10937,3.5 -1.40626,0.875 -3.58334,1.3125 -6.53125,1.3125 -2.64584,0 -5.29167,-0.427083 -7.9375,-1.28125 -2.64584,-0.854166 -4.92709,-1.984375 -6.84375,-3.390625 l -3.51563,7.796875 c 2,1.541667 4.65104,2.791667 7.95313,3.75 3.3125,0.958334 6.73958,1.4375 10.28125,1.4375 4.09374,0 7.56771,-0.614583 10.42187,-1.84375 2.86459,-1.239583 5.01042,-2.916666 6.4375,-5.03125 1.4375,-2.114583 2.15625,-4.453125 2.15625,-7.015625 0,-2.979166 -0.78125,-5.34375 -2.34375,-7.09375 -1.55208,-1.75 -3.41666,-3.03125 -5.59375,-3.84375 -2.17708,-0.812497 -4.97396,-1.625 -8.39062,-2.4375 -3.28126,-0.71875 -5.72396,-1.453125 -7.32813,-2.203125 -1.60416,-0.75 -2.40625,-1.890625 -2.40625,-3.421875 0,-1.541666 0.69271,-2.78125 2.07813,-3.71875 1.39583,-0.9375 3.54166,-1.40625 6.4375,-1.40625 4.14583,0 8.28646,1.171875 12.42187,3.515625 l 3.20313,-7.859375 c -2.05209,-1.28125 -4.44271,-2.260416 -7.17188,-2.9375 -2.72916,-0.6875 -5.52604,-1.03125 -8.39062,-1.03125 z"
       style="fill:#ffffff;fill-rule:nonzero;stroke:none" />
    <path
       inkscape:connector-curvature="0"
       id="path857"
       d="m 225.7207,43.677732 v 44.796875 h 10.29688 V 77.146482 l 6.01562,-6.265625 14.34375,17.59375 H 268.4707 L 248.83008,63.646482 267.37695,43.677732 H 255.86133 L 236.01758,64.599607 V 43.677732 Z"
       style="fill:#ffffff;fill-rule:nonzero;stroke:none" />
    <path
       d="m 327.6151,34.583498 h 8.89062 l -21.125,60.29687 h -8.89062 z m 40.50983,27.328125 v 8.328121 l -30.46875,11.578125 v -8 l 21.3125,-7.75 -21.3125,-7.796871 v -7.9375 z"
       id="path13"
       style="fill:#ffff00;fill-opacity:1;fill-rule:nonzero;stroke:none"
       inkscape:connector-curvature="0" />
    <path
       d="M 177.33595,88.474607 136.32003,17.527097 95.304103,88.474607 Z"
       id="path15"
       style="fill:#ffffff;fill-rule:evenodd;stroke:none"
       inkscape:connector-curvature="0" />
    <path
       inkscape:connector-curvature="0"
       id="path886"
       d="m 68.234373,17.314451 v 4.234375 h 7.171875 v 18.171875 h 5.1875 V 21.548826 h 7.15625 v -4.234375 z m 22.308594,0 v 22.40625 h 5.1875 v -6.234375 h 4.515623 0.25 l 4.3125,6.234375 h 5.57813 l -5.03125,-7.203125 c 1.47917,-0.635417 2.61458,-1.557292 3.40625,-2.765625 0.80209,-1.208333 1.20312,-2.640625 1.20312,-4.296875 0,-1.666667 -0.39583,-3.109375 -1.1875,-4.328125 -0.78125,-1.21875 -1.90625,-2.15625 -3.375,-2.8125 -1.45833,-0.666667 -3.17708,-1 -5.15625,-1 z m 23.519533,0 v 22.40625 h 5.1875 v -22.40625 z m -18.332033,4.234375 h 4.21875 c 1.562503,0 2.744793,0.338542 3.546873,1.015625 0.8125,0.666667 1.21875,1.630208 1.21875,2.890625 0,1.229167 -0.40625,2.1875 -1.21875,2.875 -0.80208,0.677083 -1.98437,1.015625 -3.546873,1.015625 h -4.21875 z"
       style="fill:#ffffff;fill-rule:nonzero;stroke:none" />
    <path
       id="path878"
       d="m 190.48828,16.939451 c -2.34375,0 -4.45312,0.494792 -6.32812,1.484375 -1.875,0.989583 -3.34375,2.364583 -4.40625,4.125 -1.05208,1.760417 -1.57813,3.75 -1.57813,5.96875 0,2.21875 0.52605,4.208333 1.57813,5.96875 1.0625,1.760417 2.52083,3.140625 4.375,4.140625 1.85417,0.989583 3.9427,1.484375 6.26562,1.484375 1.625,0 3.23438,-0.244792 4.82813,-0.734375 1.60417,-0.5 3.01562,-1.208333 4.23437,-2.125 v -9.078125 h -4.73437 v 6.5625 c -1.19791,0.635417 -2.54166,0.953125 -4.03125,0.953125 -1.41667,0 -2.67188,-0.302083 -3.76563,-0.90625 -1.09375,-0.614583 -1.95312,-1.463542 -2.57812,-2.546875 -0.61458,-1.09375 -0.92188,-2.333333 -0.92188,-3.71875 0,-1.40625 0.3073,-2.651042 0.92188,-3.734375 0.625,-1.09375 1.48958,-1.9375 2.59375,-2.53125 1.11459,-0.604167 2.38542,-0.90625 3.8125,-0.90625 2.26042,0 4.1875,0.84375 5.78125,2.53125 l 3.32812,-3.0625 c -1.08333,-1.260417 -2.42708,-2.21875 -4.03125,-2.875 -1.59375,-0.666667 -3.375,-1 -5.34375,-1 z m -36.76172,0.375 v 22.40625 h 5.125 v -13.59375 l 11.15625,13.59375 h 4.26563 v -22.40625 h -5.125 V 30.923826 L 158.00781,17.314451 Z m 50.52735,0 v 22.40625 h 16.42187 v -4.21875 h -11.23437 v -18.1875 z m 19.32812,0 v 22.40625 h 17.34375 v -4.15625 h -12.1875 v -5.1875 h 10.39063 v -4.03125 h -10.39063 v -4.859375 h 11.76563 v -4.171875 z"
       style="fill:#ffffff;fill-rule:nonzero;stroke:none"
       inkscape:connector-curvature="0" />
  </g>
</svg>
