<?xml version="1.0" encoding="UTF-8" standalone="no"?>
<!-- Created with Inkscape (http://www.inkscape.org/) -->

<svg
   xmlns:dc="http://purl.org/dc/elements/1.1/"
   xmlns:cc="http://creativecommons.org/ns#"
   xmlns:rdf="http://www.w3.org/1999/02/22-rdf-syntax-ns#"
   xmlns:svg="http://www.w3.org/2000/svg"
   xmlns="http://www.w3.org/2000/svg"
   xmlns:sodipodi="http://sodipodi.sourceforge.net/DTD/sodipodi-0.dtd"
   xmlns:inkscape="http://www.inkscape.org/namespaces/inkscape"
   width="256"
   height="256"
   viewBox="0 0 67.733332 67.733335"
   version="1.1"
   id="svg824"
   sodipodi:docname="category_altruism.svg"
   inkscape:version="0.92.3 (2405546, 2018-03-11)">
  <defs
     id="defs818" />
  <sodipodi:namedview
     id="base"
     pagecolor="#ffffff"
     bordercolor="#666666"
     borderopacity="1.0"
     inkscape:pageopacity="0.0"
     inkscape:pageshadow="2"
     inkscape:zoom="4.1321553"
     inkscape:cx="21.397037"
     inkscape:cy="128"
     inkscape:document-units="mm"
     inkscape:current-layer="layer1"
     showgrid="false"
     units="px"
     inkscape:window-width="3120"
     inkscape:window-height="1752"
     inkscape:window-x="80"
     inkscape:window-y="0"
     inkscape:window-maximized="1" />
  <metadata
     id="metadata821">
    <rdf:RDF>
      <cc:Work
         rdf:about="">
        <dc:format>image/svg+xml</dc:format>
        <dc:type
           rdf:resource="http://purl.org/dc/dcmitype/StillImage" />
        <dc:title></dc:title>
      </cc:Work>
    </rdf:RDF>
  </metadata>
  <g
     inkscape:label="Layer 1"
     inkscape:groupmode="layer"
     id="layer1"
     transform="translate(0,-229.26665)">
    <path
       style="fill:#ffffff;fill-opacity:1;fill-rule:evenodd;stroke-width:0.06362568"
       d="m 27.252105,236.67498 v 3.30735 h 3.307342 v 3.30733 h 3.307341 3.307329 v -3.30733 h 3.307104 v -3.30735 h -3.307104 -3.307329 -3.307341 z m 13.229116,3.30735 v 3.30733 h 3.307329 3.307342 3.307341 v -3.30733 H 47.095892 43.78855 Z m 9.922012,3.30733 v 3.3071 h 3.307328 v -3.3071 z m 3.307328,3.3071 v 3.30734 3.30733 h 3.307346 v -3.30733 -3.30734 z m 3.307346,6.61467 v 3.30735 3.30733 3.30709 3.30733 3.30735 3.30733 H 60.325 v -3.30733 -3.30735 -3.30733 -3.30709 -3.30733 -3.30735 z m 0,19.84378 h -3.307346 v 3.30734 h -3.307328 v -3.30734 H 47.095892 43.78855 40.481221 37.174117 v 3.30734 h -3.307329 v 3.30734 h 3.307329 v 3.30709 h 3.307104 v 3.30735 h 3.307329 3.307342 3.307341 v -3.30735 h 3.307328 v -3.30709 h 3.307346 v -3.30734 z m -16.536686,13.22912 h -3.307104 -3.307329 -3.307341 -3.307342 v 3.30733 h 3.307342 3.307341 3.307329 3.307104 z m -13.229116,0 v -3.30735 h -3.307329 -3.307092 -3.307341 v 3.30735 h 3.307341 3.307092 z m -9.921762,-3.30735 v -3.30709 h -3.307336 v 3.30709 z m -3.307336,-3.30709 v -3.30734 -3.30734 h -3.307338 v 3.30734 3.30734 z m -3.307338,-6.61468 v -3.30733 -3.30735 -3.30733 -3.30709 -3.30733 -3.30735 H 7.4083332 v 3.30735 3.30733 3.30709 3.30733 3.30735 3.30733 z m 0,-19.84378 h 3.307338 v -3.30733 h 3.307336 v 3.30733 3.30735 3.30733 3.30709 h 3.307341 v 3.30733 h 3.307092 v 3.30735 h 3.307329 v -3.30735 -3.30733 h 3.307342 v 3.30733 h 3.307341 v -3.30733 -3.30709 -3.30733 h 3.307329 v -3.30735 -3.30733 h -3.307329 v 3.30733 h -3.307341 -3.307342 v -3.30733 -3.30734 h -3.307329 -3.307092 -3.307341 v -3.3071 h -3.307336 v 3.3071 h -3.307338 v 3.30734 z m 6.614674,-9.92177 h 3.307341 3.307092 3.307329 v -3.30733 h -3.307329 -3.307092 -3.307341 z m 9.921762,0 v 3.3071 h 3.307342 v -3.3071 z m 0,26.45822 v 3.30733 h 3.307342 v -3.30733 z m 3.307342,3.30733 v 3.30734 h 3.307341 v -3.30734 z"
       id="rect2684"
       inkscape:connector-curvature="0" />
  </g>
</svg>
